<svg width="34" height="35" viewBox="0 0 34 35" fill="none" xmlns="http://www.w3.org/2000/svg">
<path d="M12.2133 7.10501H11.9554C12.0972 7.10501 12.2133 6.98548 12.2133 6.83939V7.10501H22.0101V6.83939C22.0101 6.98548 22.1261 7.10501 22.2679 7.10501H22.0101V9.49564H24.3304V6.83939C24.3304 5.66732 23.4055 4.71439 22.2679 4.71439H11.9554C10.8178 4.71439 9.89294 5.66732 9.89294 6.83939V9.49564H12.2133V7.10501ZM28.4554 9.49564H5.76794C5.19753 9.49564 4.73669 9.97044 4.73669 10.5581V11.6206C4.73669 11.7667 4.85271 11.8863 4.99451 11.8863H6.94099L7.73699 29.2515C7.78855 30.3837 8.69734 31.2769 9.79626 31.2769H24.4271C25.5293 31.2769 26.4348 30.387 26.4864 29.2515L27.2824 11.8863H29.2289C29.3707 11.8863 29.4867 11.7667 29.4867 11.6206V10.5581C29.4867 9.97044 29.0259 9.49564 28.4554 9.49564ZM24.179 28.8863H10.0444L9.26453 11.8863H24.9589L24.179 28.8863Z" fill="#031323"/>
</svg>
