<svg width="34" height="35" viewBox="0 0 34 35" fill="none" xmlns="http://www.w3.org/2000/svg">
<path d="M22.9281 8.65697L25.8404 11.6561L22.9281 8.65697ZM24.8009 6.01488L16.9262 14.1281C16.5194 14.5468 16.2419 15.0801 16.1287 15.661L15.4014 19.4123L19.0424 18.6615C19.6061 18.5453 20.1231 18.2606 20.5301 17.8412L28.4047 9.72797C28.6414 9.48416 28.8291 9.19473 28.9572 8.87618C29.0852 8.55763 29.1511 8.21622 29.1511 7.87143C29.1511 7.52663 29.0852 7.18522 28.9572 6.86667C28.8291 6.54813 28.6414 6.25869 28.4047 6.01488C28.1681 5.77108 27.8872 5.57768 27.578 5.44574C27.2688 5.31379 26.9375 5.24588 26.6028 5.24588C26.2682 5.24588 25.9368 5.31379 25.6276 5.44574C25.3184 5.57768 25.0375 5.77108 24.8009 6.01488V6.01488Z" stroke="#031323" stroke-width="2" stroke-linecap="round" stroke-linejoin="round"/>
<path d="M26.4014 22.2456V26.4956C26.4014 27.2471 26.1116 27.9677 25.5959 28.4991C25.0802 29.0305 24.3807 29.329 23.6514 29.329H8.52637C7.79702 29.329 7.09755 29.0305 6.58182 28.4991C6.0661 27.9677 5.77637 27.2471 5.77637 26.4956V10.9123C5.77637 10.1609 6.0661 9.44019 6.58182 8.90883C7.09755 8.37748 7.79702 8.07897 8.52637 8.07897H12.6514" stroke="#031323" stroke-width="2" stroke-linecap="round" stroke-linejoin="round"/>
</svg>
